<svg xmlns="http://www.w3.org/2000/svg" fill="none" viewBox="0 0 32 35"><path fill="#FBB18C" d="M17.377 12.311c-.881.042-1.788-.07-2.556-.452-.768-.38-1.378-1.058-1.485-1.836-.106-.774.362-1.62 1.181-1.914.817-.293 1.898.104 2.134.856-.01-.714-.01-1.465.367-2.095.378-.629 1.278-1.074 2.01-.774.51.21.795.723.84 1.22.042.497-.11.99-.265 1.471.155-.81 1.304-1.275 2.162-.965.859.31 1.327 1.207 1.214 2.02-.113.814-.72 1.527-1.472 2.004a4.787 4.787 0 0 1-4.13.465Z"/><path fill="#CAD61B" d="M10.739 33.484c-2.02-1.413-3.343-3.246-4.315-5.125-1.455-2.82-2.188-5.889-1.387-8.835.8-2.946 3.278-5.75 7.06-7.17 3.782-1.42 8.875-1.214 12.008.835 1.71 1.12 2.74 2.679 3.195 4.282.452 1.604.361 3.263.087 4.886-.68 4.008-2.494 7.92-5.305 11.447-3.389-.317-6.845-.265-11.343-.32Z"/><mask id="a" style="mask-type:luminance" width="24" height="23" x="4" y="11" maskUnits="userSpaceOnUse"><path fill="#fff" d="M10.739 33.484c-2.02-1.414-3.343-3.247-4.315-5.125-1.455-2.82-2.188-5.89-1.387-8.835.8-2.947 3.278-5.751 7.06-7.17 3.782-1.42 8.875-1.214 12.008.835 1.71 1.12 2.74 2.678 3.195 4.282.452 1.604.361 3.263.087 4.886-.68 4.008-2.494 7.92-5.305 11.446-3.389-.316-6.845-.264-11.343-.32Z"/></mask><g mask="url(#a)"><path stroke="#A9B136" stroke-miterlimit="10" stroke-width="1.055" d="M12.888 10.472c-6.248 7.858-6.283 18.717-.087 26.6"/></g><mask id="b" style="mask-type:luminance" width="24" height="23" x="4" y="11" maskUnits="userSpaceOnUse"><path fill="#fff" d="M10.739 33.484c-2.02-1.414-3.343-3.247-4.315-5.125-1.455-2.82-2.188-5.89-1.387-8.835.8-2.947 3.278-5.751 7.06-7.17 3.782-1.42 8.875-1.214 12.008.835 1.71 1.12 2.74 2.678 3.195 4.282.452 1.604.361 3.263.087 4.886-.68 4.008-2.494 7.92-5.305 11.446-3.389-.316-6.845-.264-11.343-.32Z"/></mask><g mask="url(#b)"><path stroke="#A9B136" stroke-miterlimit="10" stroke-width="1.055" d="M22.082 9.862c3.253 8.342 2.54 17.675-1.959 25.62"/></g><mask id="c" style="mask-type:luminance" width="24" height="23" x="4" y="11" maskUnits="userSpaceOnUse"><path fill="#fff" d="M10.739 33.484c-2.02-1.414-3.343-3.247-4.315-5.125-1.455-2.82-2.188-5.89-1.387-8.835.8-2.947 3.278-5.751 7.06-7.17 3.782-1.42 8.875-1.214 12.008.835 1.71 1.12 2.74 2.678 3.195 4.282.452 1.604.361 3.263.087 4.886-.68 4.008-2.494 7.92-5.305 11.446-3.389-.316-6.845-.264-11.343-.32Z"/></mask><g mask="url(#c)"><path stroke="#A9B136" stroke-miterlimit="10" stroke-width="1.055" d="M16.67 9.656c-3.73 8.164-4.476 17.225-2.113 25.726"/></g><mask id="d" style="mask-type:luminance" width="24" height="23" x="4" y="11" maskUnits="userSpaceOnUse"><path fill="#fff" d="M10.739 33.484c-2.02-1.414-3.343-3.247-4.315-5.125-1.455-2.82-2.188-5.89-1.387-8.835.8-2.947 3.278-5.751 7.06-7.17 3.782-1.42 8.875-1.214 12.008.835 1.71 1.12 2.74 2.678 3.195 4.282.452 1.604.361 3.263.087 4.886-.68 4.008-2.494 7.92-5.305 11.446-3.389-.316-6.845-.264-11.343-.32Z"/></mask><g mask="url(#d)"><path stroke="#A9B136" stroke-miterlimit="10" stroke-width="1.055" d="M18.183 8.633A87.576 87.576 0 0 1 16.45 37.72"/></g><path fill="#BB712C" d="M4 33.58a4 4 0 0 1 4-4h16.316a4 4 0 0 1 4 4V34H4v-.42Z"/><path fill="#92541B" d="M0 34h32v1H0z"/></svg>